<?xml version="1.0" encoding="UTF-8" standalone="no"?>
<svg
   version="1.1"
   width="225"
   height="225"
   id="svg1"
   sodipodi:docname="logo-only.svg"
   inkscape:version="1.4-dev (1:1.4.0-dev+202403210151+2fe0648968)"
   xmlns:inkscape="http://www.inkscape.org/namespaces/inkscape"
   xmlns:sodipodi="http://sodipodi.sourceforge.net/DTD/sodipodi-0.dtd"
   xmlns="http://www.w3.org/2000/svg"
   xmlns:svg="http://www.w3.org/2000/svg">
  <defs
     id="defs1" />
  <sodipodi:namedview
     id="namedview1"
     pagecolor="#ffffff"
     bordercolor="#000000"
     borderopacity="0.25"
     inkscape:showpageshadow="2"
     inkscape:pageopacity="0.0"
     inkscape:pagecheckerboard="0"
     inkscape:deskcolor="#d1d1d1"
     inkscape:zoom="2.4088889"
     inkscape:cx="112.29244"
     inkscape:cy="112.29244"
     inkscape:window-width="1920"
     inkscape:window-height="1011"
     inkscape:window-x="0"
     inkscape:window-y="32"
     inkscape:window-maximized="1"
     inkscape:current-layer="svg1" />
  <path
     d="M0 0 C1.85866699 -0.02102783 1.85866699 -0.02102783 3.75488281 -0.04248047 C22.93096303 0.0569964 39.6409836 5.38891638 53.90625 18.3984375 C62.37745423 27.16287572 67.15892401 38.57497871 69.6875 50.375 C65.68306074 49.78228516 62.82569705 48.4780185 59.3125 46.5 C35.80258601 34.68825578 4.12160786 39.10849244 -20.17578125 46.9296875 C-44.20832662 55.10154852 -66.24320816 69.46797672 -78.3125 92.375 C-83.58333871 104.08971274 -86.83493617 117.55106756 -82.6875 130.0625 C-78.2023579 141.11011318 -70.3954527 148.33141247 -59.7578125 153.40625 C-56.54761599 154.67802114 -53.74794787 155.15094905 -50.3125 155.375 C-50.73402344 154.68792969 -51.15554687 154.00085938 -51.58984375 153.29296875 C-52.13769531 152.39191406 -52.68554688 151.49085938 -53.25 150.5625 C-53.79527344 149.66917969 -54.34054688 148.77585938 -54.90234375 147.85546875 C-58.88717214 140.84614457 -58.22891119 131.02710011 -56.69921875 123.26171875 C-50.87083257 105.51980312 -35.312955 93.60519431 -19.3125 85.375 C13.66209235 68.87641889 51.74068846 65.4175526 87.6875 72.375 C90.02395322 81.16846305 90.04580372 89.91392192 90 98.9375 C89.99676727 100.07541992 89.99676727 100.07541992 89.99346924 101.23632812 C89.85463919 131.61523191 81.37962893 158.48096198 60.4375 181.0625 C37.39142713 202.81324324 7.40096955 210.34234022 -23.49609375 209.7265625 C-32.10802593 209.39547176 -40.11302987 207.98723957 -48.3125 205.375 C-49.45203125 205.01277344 -50.5915625 204.65054688 -51.765625 204.27734375 C-64.53325543 199.72848991 -76.10711105 193.28649142 -86.3125 184.375 C-86.9725 183.85808594 -87.6325 183.34117187 -88.3125 182.80859375 C-103.16818121 170.85815665 -112.57165978 153.21876483 -118.3125 135.375 C-118.65539062 134.32441406 -118.99828125 133.27382812 -119.3515625 132.19140625 C-125.9286297 107.57350521 -121.15690302 81.45530686 -109.3125 59.375 C-104.37210232 50.8718999 -98.09901424 43.45864709 -91.3125 36.375 C-90.62800781 35.62734375 -89.94351563 34.8796875 -89.23828125 34.109375 C-65.91673092 9.45146966 -32.97386172 0.25551701 0 0 Z M20.6875 102.375 C19.71039063 102.7875 18.73328125 103.2 17.7265625 103.625 C-1.59579479 112.55081334 -20.13081521 128.33293126 -28.52734375 148.2578125 C-29.21132807 150.26878945 -29.78065819 152.318545 -30.3125 154.375 C-25.26401541 153.82099319 -21.21155818 152.11900453 -16.75 149.8125 C-16.05108643 149.45534912 -15.35217285 149.09819824 -14.63208008 148.73022461 C-2.4984166 142.44201592 9.12797549 135.27816755 18.6875 125.375 C17.77993012 131.47273513 12.55714977 135.87735452 8.6875 140.375 C7.94628906 141.24125 7.20507812 142.1075 6.44140625 143 C1.80104024 148.29382219 -3.12012168 153.05161604 -8.44140625 157.66015625 C-9.05886719 158.22605469 -9.67632812 158.79195312 -10.3125 159.375 C-10.3125 159.705 -10.3125 160.035 -10.3125 160.375 C9.98716912 160.29059389 28.26822678 147.57328638 42.6875 134.375 C43.4609375 133.67246094 44.234375 132.96992188 45.03125 132.24609375 C53.64635544 124.04517607 59.31396912 114.39693862 63.6875 103.375 C63.6875 102.715 63.6875 102.055 63.6875 101.375 C57.17654631 98.78069923 51.42768544 97.8564208 44.4375 97.9375 C43.05606812 97.94885986 43.05606812 97.94885986 41.64672852 97.96044922 C34.12635711 98.14118615 27.6285146 99.38157052 20.6875 102.375 Z "
     fill="#FFFFFF"
     transform="translate(128.3125,7.625)"
     id="path1"
     style="fill:#197141;fill-opacity:1"
     inkscape:export-filename="logo-only-green.png"
     inkscape:export-xdpi="96"
     inkscape:export-ydpi="96" />
</svg>
