<svg width="197" height="27" viewBox="0 0 197 27" fill="none" xmlns="http://www.w3.org/2000/svg">
    <path
        d="M186.707 26.9459C185.54 26.9459 184.501 26.7436 183.589 26.339C182.677 25.9265 181.955 25.3196 181.423 24.5183C180.899 23.7091 180.638 22.7016 180.638 21.4958C180.638 20.4803 180.824 19.6275 181.197 18.9373C181.57 18.2471 182.078 17.6918 182.72 17.2713C183.363 16.8509 184.093 16.5335 184.91 16.3193C185.735 16.1051 186.599 15.9544 187.504 15.8671C188.567 15.7561 189.424 15.653 190.074 15.5578C190.725 15.4546 191.197 15.3039 191.49 15.1056C191.784 14.9072 191.931 14.6137 191.931 14.225V14.1536C191.931 13.3999 191.693 12.8168 191.217 12.4043C190.749 11.9918 190.082 11.7855 189.217 11.7855C188.305 11.7855 187.579 11.9878 187.04 12.3924C186.5 12.7891 186.143 13.2888 185.969 13.8918L181.28 13.511C181.518 12.4003 181.986 11.4404 182.684 10.6312C183.383 9.8141 184.283 9.18737 185.386 8.75104C186.496 8.30679 187.782 8.08466 189.241 8.08466C190.257 8.08466 191.229 8.20365 192.157 8.44165C193.093 8.67965 193.922 9.04854 194.644 9.54833C195.374 10.0481 195.949 10.6907 196.369 11.4761C196.79 12.2536 197 13.1857 197 14.2726V26.6008H192.192V24.0661H192.05C191.756 24.6373 191.363 25.1411 190.872 25.5774C190.38 26.0058 189.789 26.343 189.098 26.5889C188.408 26.8269 187.611 26.9459 186.707 26.9459ZM188.158 23.4473C188.904 23.4473 189.563 23.3006 190.134 23.007C190.705 22.7056 191.153 22.301 191.478 21.7933C191.804 21.2855 191.966 20.7104 191.966 20.0678V18.1281C191.808 18.2312 191.589 18.3264 191.312 18.4137C191.042 18.493 190.737 18.5684 190.396 18.6398C190.054 18.7033 189.713 18.7628 189.372 18.8183C189.031 18.8659 188.722 18.9095 188.444 18.9492C187.849 19.0365 187.329 19.1753 186.885 19.3657C186.441 19.5561 186.096 19.8139 185.85 20.1392C185.604 20.4565 185.481 20.8532 185.481 21.3292C185.481 22.0194 185.731 22.5469 186.231 22.9118C186.738 23.2688 187.381 23.4473 188.158 23.4473Z"
        fill="red" stroke-dasharray="10">
        <animate />
    </path>
    <path
        d="M165.718 16.0337V26.6008H160.649V8.32265H165.48V11.5475H165.694C166.099 10.4845 166.777 9.64353 167.729 9.02474C168.681 8.39802 169.836 8.08466 171.192 8.08466C172.461 8.08466 173.568 8.36232 174.512 8.91764C175.456 9.47297 176.19 10.2663 176.714 11.2976C177.237 12.321 177.499 13.5427 177.499 14.9628V26.6008H172.43V15.8671C172.438 14.7486 172.152 13.8759 171.573 13.2492C170.994 12.6145 170.197 12.2972 169.181 12.2972C168.499 12.2972 167.896 12.444 167.372 12.7375C166.857 13.031 166.452 13.4594 166.159 14.0227C165.873 14.578 165.726 15.2484 165.718 16.0337Z"
        fill="white" />
    <path
        d="M151.519 26.6008V8.32263H156.588V26.6008H151.519ZM154.065 5.96646C153.312 5.96646 152.665 5.71656 152.126 5.21677C151.594 4.70904 151.328 4.10215 151.328 3.3961C151.328 2.69797 151.594 2.09901 152.126 1.59922C152.665 1.09149 153.312 0.837631 154.065 0.837631C154.819 0.837631 155.462 1.09149 155.993 1.59922C156.533 2.09901 156.802 2.69797 156.802 3.3961C156.802 4.10215 156.533 4.70904 155.993 5.21677C155.462 5.71656 154.819 5.96646 154.065 5.96646Z"
        fill="white" />
    <path
        d="M120.954 26.6008V8.32265H125.785V11.5475H126C126.38 10.4765 127.015 9.63163 127.904 9.01284C128.792 8.39405 129.855 8.08466 131.093 8.08466C132.346 8.08466 133.413 8.39802 134.294 9.02474C135.174 9.64353 135.761 10.4845 136.055 11.5475H136.245C136.618 10.5003 137.293 9.66337 138.268 9.03664C139.252 8.40198 140.414 8.08466 141.755 8.08466C143.461 8.08466 144.845 8.62808 145.908 9.71493C146.979 10.7939 147.514 12.325 147.514 14.3083V26.6008H142.457V15.3079C142.457 14.2924 142.187 13.5308 141.648 13.0231C141.108 12.5154 140.434 12.2615 139.625 12.2615C138.705 12.2615 137.987 12.555 137.471 13.1421C136.955 13.7212 136.698 14.4868 136.698 15.4388V26.6008H131.783V15.2008C131.783 14.3043 131.525 13.5903 131.009 13.0588C130.502 12.5273 129.831 12.2615 128.998 12.2615C128.435 12.2615 127.927 12.4043 127.475 12.6899C127.031 12.9676 126.678 13.3602 126.416 13.868C126.154 14.3678 126.023 14.9548 126.023 15.6292V26.6008H120.954Z"
        fill="white" />
    <path
        d="M108.661 26.9578C106.813 26.9578 105.215 26.5651 103.866 25.7797C102.525 24.9864 101.49 23.8837 100.76 22.4716C100.03 21.0515 99.6652 19.4054 99.6652 17.5331C99.6652 15.645 100.03 13.9949 100.76 12.5828C101.49 11.1627 102.525 10.06 103.866 9.27464C105.215 8.48132 106.813 8.08466 108.661 8.08466C110.51 8.08466 112.105 8.48132 113.445 9.27464C114.794 10.06 115.833 11.1627 116.563 12.5828C117.293 13.9949 117.658 15.645 117.658 17.5331C117.658 19.4054 117.293 21.0515 116.563 22.4716C115.833 23.8837 114.794 24.9864 113.445 25.7797C112.105 26.5651 110.51 26.9578 108.661 26.9578ZM108.685 23.0308C109.526 23.0308 110.228 22.7929 110.792 22.3169C111.355 21.8329 111.779 21.1745 112.065 20.3415C112.358 19.5085 112.505 18.5605 112.505 17.4974C112.505 16.4344 112.358 15.4864 112.065 14.6534C111.779 13.8204 111.355 13.1619 110.792 12.678C110.228 12.1941 109.526 11.9521 108.685 11.9521C107.836 11.9521 107.122 12.1941 106.543 12.678C105.972 13.1619 105.54 13.8204 105.246 14.6534C104.961 15.4864 104.818 16.4344 104.818 17.4974C104.818 18.5605 104.961 19.5085 105.246 20.3415C105.54 21.1745 105.972 21.8329 106.543 22.3169C107.122 22.7929 107.836 23.0308 108.685 23.0308Z"
        fill="white" />
    <path
        d="M84.6269 16.0337V26.6008H79.5576V8.32265H84.3889V11.5475H84.6031C85.0077 10.4845 85.686 9.64353 86.638 9.02474C87.5899 8.39802 88.7442 8.08466 90.1008 8.08466C91.3701 8.08466 92.4768 8.36232 93.4209 8.91764C94.3649 9.47297 95.0987 10.2663 95.6223 11.2976C96.1459 12.321 96.4077 13.5427 96.4077 14.9628V26.6008H91.3384V15.8671C91.3463 14.7486 91.0607 13.8759 90.4816 13.2492C89.9025 12.6145 89.1052 12.2972 88.0897 12.2972C87.4075 12.2972 86.8046 12.444 86.281 12.7375C85.7653 13.031 85.3607 13.4594 85.0672 14.0227C84.7816 14.578 84.6348 15.2484 84.6269 16.0337Z"
        fill="white" />
    <path
        d="M67.86 26.9578C65.9798 26.9578 64.3614 26.577 63.0048 25.8154C61.6562 25.0459 60.6169 23.959 59.8871 22.5549C59.1572 21.1427 58.7923 19.4728 58.7923 17.545C58.7923 15.6648 59.1572 14.0147 59.8871 12.5947C60.6169 11.1746 61.6443 10.068 62.9691 9.27464C64.3019 8.48132 65.8648 8.08466 67.6577 8.08466C68.8635 8.08466 69.9861 8.27902 71.0253 8.66775C72.0725 9.04854 72.9848 9.6237 73.7623 10.3932C74.5477 11.1627 75.1585 12.1306 75.5949 13.2968C76.0312 14.455 76.2494 15.8116 76.2494 17.3665V18.7588H60.8153V15.6172H71.4775C71.4775 14.8874 71.3189 14.2408 71.0015 13.6776C70.6842 13.1143 70.2439 12.674 69.6806 12.3567C69.1253 12.0314 68.4788 11.8688 67.741 11.8688C66.9714 11.8688 66.2892 12.0473 65.6942 12.4043C65.1071 12.7534 64.647 13.2254 64.3138 13.8204C63.9806 14.4074 63.8101 15.0619 63.8021 15.7838V18.7707C63.8021 19.6751 63.9687 20.4565 64.3019 21.115C64.643 21.7734 65.123 22.2812 65.7418 22.6382C66.3606 22.9951 67.0944 23.1736 67.9433 23.1736C68.5065 23.1736 69.0222 23.0943 69.4902 22.9356C69.9583 22.777 70.3589 22.539 70.6921 22.2217C71.0253 21.9043 71.2792 21.5156 71.4537 21.0555L76.1423 21.3649C75.9043 22.4914 75.4164 23.4751 74.6786 24.316C73.9487 25.149 73.0047 25.7995 71.8464 26.2676C70.6961 26.7277 69.3673 26.9578 67.86 26.9578Z"
        fill="white" />
    <path
        d="M47.8326 26.9578C45.9524 26.9578 44.334 26.577 42.9775 25.8154C41.6288 25.0459 40.5896 23.959 39.8597 22.5549C39.1299 21.1427 38.7649 19.4728 38.7649 17.545C38.7649 15.6648 39.1299 14.0147 39.8597 12.5947C40.5896 11.1746 41.6169 10.068 42.9418 9.27464C44.2745 8.48132 45.8374 8.08466 47.6303 8.08466C48.8362 8.08466 49.9587 8.27902 50.998 8.66775C52.0451 9.04854 52.9575 9.6237 53.7349 10.3932C54.5203 11.1627 55.1312 12.1306 55.5675 13.2968C56.0038 14.455 56.222 15.8116 56.222 17.3665V18.7588H40.7879V15.6172H51.4501C51.4501 14.8874 51.2915 14.2408 50.9742 13.6776C50.6568 13.1143 50.2165 12.674 49.6533 12.3567C49.0979 12.0314 48.4514 11.8688 47.7136 11.8688C46.9441 11.8688 46.2618 12.0473 45.6668 12.4043C45.0798 12.7534 44.6196 13.2254 44.2864 13.8204C43.9533 14.4074 43.7827 15.0619 43.7748 15.7838V18.7707C43.7748 19.6751 43.9414 20.4565 44.2745 21.115C44.6157 21.7734 45.0956 22.2812 45.7144 22.6382C46.3332 22.9951 47.067 23.1736 47.9159 23.1736C48.4792 23.1736 48.9948 23.0943 49.4629 22.9356C49.9309 22.777 50.3316 22.539 50.6648 22.2217C50.998 21.9043 51.2518 21.5156 51.4263 21.0555L56.1149 21.3649C55.8769 22.4914 55.389 23.4751 54.6512 24.316C53.9213 25.149 52.9773 25.7995 51.819 26.2676C50.6687 26.7277 49.3399 26.9578 47.8326 26.9578Z"
        fill="white" />
    <path
        d="M26.6419 26.6007V8.3226H31.5566V11.5118H31.747C32.0802 10.3773 32.6395 9.52052 33.4248 8.9414C34.2102 8.35434 35.1146 8.06081 36.138 8.06081C36.3919 8.06081 36.6656 8.07667 36.9591 8.10841C37.2526 8.14014 37.5105 8.18377 37.7326 8.2393V12.7374C37.4946 12.666 37.1654 12.6026 36.7449 12.547C36.3244 12.4915 35.9397 12.4637 35.5906 12.4637C34.8449 12.4637 34.1785 12.6264 33.5914 12.9516C33.0123 13.269 32.5522 13.7132 32.2111 14.2844C31.8779 14.8556 31.7113 15.5141 31.7113 16.2598V26.6007H26.6419Z"
        fill="white" />
    <path
        d="M17.4047 10.1076C17.2381 9.52843 17.0041 9.01674 16.7026 8.57247C16.4012 8.12028 16.0323 7.73949 15.5959 7.43009C15.1675 7.11276 14.6757 6.8708 14.1204 6.7042C13.573 6.5376 12.9661 6.45431 12.2997 6.45431C11.0542 6.45431 9.95938 6.7637 9.01533 7.38249C8.07921 8.00128 7.34935 8.9017 6.82576 10.0838C6.30217 11.2579 6.04037 12.6938 6.04037 14.3915C6.04037 16.0892 6.2982 17.5331 6.81386 18.723C7.32952 19.913 8.05938 20.8214 9.00343 21.4481C9.94748 22.0669 11.0621 22.3763 12.3473 22.3763C13.5135 22.3763 14.5091 22.17 15.3341 21.7575C16.1671 21.337 16.8018 20.746 17.2381 19.9844C17.6824 19.2228 17.9045 18.3224 17.9045 17.2832L18.9517 17.4379H12.6686V13.5585H22.8667V16.6287C22.8667 18.7706 22.4145 20.6111 21.5102 22.1502C20.6058 23.6813 19.3603 24.8633 17.7736 25.6963C16.187 26.5214 14.3703 26.9339 12.3235 26.9339C10.0387 26.9339 8.03161 26.4302 6.30217 25.4226C4.57273 24.4072 3.22408 22.9673 2.25623 21.103C1.29631 19.2308 0.816345 17.0095 0.816345 14.4391C0.816345 12.4637 1.10194 10.7025 1.67313 9.15557C2.25226 7.60066 3.06145 6.28374 4.1007 5.20482C5.13995 4.1259 6.34977 3.30482 7.73015 2.74156C9.11053 2.1783 10.6059 1.89667 12.2164 1.89667C13.5968 1.89667 14.882 2.09896 16.0719 2.50356C17.2619 2.90022 18.317 3.46348 19.2373 4.19334C20.1655 4.92319 20.9231 5.79188 21.5102 6.7994C22.0972 7.79899 22.474 8.9017 22.6406 10.1076H17.4047Z"
        fill="white" />
</svg>